<?xml version="1.0" standalone="no"?>
<!DOCTYPE svg PUBLIC "-//W3C//DTD SVG 20010904//EN"
 "http://www.w3.org/TR/2001/REC-SVG-20010904/DTD/svg10.dtd">
<svg version="1.0" xmlns="http://www.w3.org/2000/svg"
 width="1280.000000pt" height="215.000000pt" viewBox="0 0 1280.000000 215.000000"
 preserveAspectRatio="xMidYMid meet">
<metadata>
Created by potrace 1.16, written by Peter Selinger 2001-2019
</metadata>
<g transform="translate(0.000000,215.000000) scale(0.100000,-0.100000)"
fill="#000000" stroke="none">
<path d="M1890 1915 l0 -185 205 0 205 0 0 185 0 185 -205 0 -205 0 0 -185z"/>
<path d="M6890 1840 l0 -260 -130 0 -130 0 0 -165 0 -165 130 0 130 0 0 -412
c0 -469 5 -515 65 -605 44 -66 118 -125 192 -154 52 -20 81 -22 291 -27 l232
-5 0 156 0 155 -107 4 c-85 3 -117 8 -148 25 -48 25 -90 68 -104 106 -7 18
-11 160 -11 393 l0 364 195 0 195 0 0 165 0 165 -195 0 -195 0 0 260 0 260
-205 0 -205 0 0 -260z"/>
<path d="M9810 1840 l0 -260 -130 0 -130 0 0 -165 0 -165 130 0 130 0 0 -402
c0 -253 4 -426 11 -467 30 -173 158 -295 334 -321 39 -5 152 -10 253 -10 l182
0 0 154 0 154 -107 4 c-116 4 -165 21 -209 70 -54 58 -54 60 -54 453 l0 365
195 0 195 0 0 165 0 165 -195 0 -195 0 0 260 0 260 -205 0 -205 0 0 -260z"/>
<path d="M12380 1075 l0 -1025 210 0 210 0 0 1025 0 1025 -210 0 -210 0 0
-1025z"/>
<path d="M3178 1584 c-109 -26 -178 -73 -227 -154 l-21 -35 0 93 0 92 -205 0
-205 0 0 -765 0 -765 205 0 205 0 0 595 0 595 225 0 225 0 0 174 0 174 -31 6
c-47 9 -108 6 -171 -10z"/>
<path d="M0 1567 c0 -7 139 -350 308 -762 l309 -750 254 -3 255 -2 327 757
c180 417 327 761 327 766 0 4 -109 6 -242 5 l-242 -3 -108 -275 c-60 -151
-153 -386 -207 -522 l-97 -247 -200 524 -199 525 -242 0 c-191 0 -243 -3 -243
-13z"/>
<path d="M1890 815 l0 -765 205 0 205 0 0 765 0 765 -205 0 -205 0 0 -765z"/>
<path d="M3490 1022 c0 -612 1 -619 61 -732 61 -115 174 -198 300 -221 30 -5
280 -12 557 -16 l502 -6 0 767 0 766 -210 0 -210 0 0 -591 0 -590 -229 3 -229
3 -43 30 c-24 17 -52 46 -64 65 -19 34 -20 52 -23 558 l-3 522 -204 0 -205 0
0 -558z"/>
<path d="M5397 1569 c-125 -29 -223 -123 -269 -258 -19 -55 -23 -87 -23 -191
0 -114 2 -130 26 -181 38 -81 137 -182 217 -221 l66 -33 301 -5 c313 -6 336
-9 383 -53 37 -34 53 -74 54 -128 0 -66 -25 -107 -87 -139 l-49 -25 -443 -3
-443 -3 0 -139 0 -140 533 0 c587 0 606 2 699 61 56 36 116 99 151 160 81 139
81 358 1 494 -53 90 -162 171 -264 194 -25 6 -166 11 -315 11 -148 0 -287 5
-309 9 -21 5 -54 24 -72 42 -59 58 -68 134 -24 207 38 61 44 62 520 62 l430 0
0 145 0 145 -522 -1 c-288 -1 -540 -5 -561 -10z"/>
<path d="M8515 1568 c-239 -15 -452 -111 -598 -268 -70 -76 -128 -180 -152
-275 -38 -147 -28 -370 25 -525 40 -121 73 -174 159 -261 62 -62 94 -85 171
-122 136 -66 231 -87 430 -94 188 -6 301 5 424 44 266 83 433 258 497 518 29
116 32 334 6 437 -50 204 -177 358 -372 453 -159 78 -351 108 -590 93z m205
-329 c141 -32 254 -141 296 -284 19 -68 22 -221 5 -297 -33 -147 -103 -243
-213 -294 -58 -27 -72 -29 -178 -29 -109 0 -119 2 -183 32 -154 73 -246 236
-247 435 -1 296 242 501 520 437z"/>
<path d="M10720 1407 l0 -176 438 -3 438 -3 42 -27 c56 -37 93 -103 99 -177
l6 -60 -399 -3 c-391 -3 -400 -4 -457 -27 -71 -28 -172 -119 -210 -189 -60
-111 -73 -295 -29 -410 44 -114 142 -208 267 -254 59 -22 68 -23 653 -26 l593
-3 -3 548 c-4 517 -5 552 -24 614 -55 179 -191 303 -379 345 -56 12 -166 17
-552 21 l-483 6 0 -176z m1020 -893 l0 -145 -282 3 c-277 3 -284 3 -325 27
-54 31 -78 75 -70 131 6 49 36 85 92 111 36 17 69 19 313 19 l272 0 0 -146z"/>
</g>
</svg>
