<?xml version="1.0" standalone="no"?>
<!DOCTYPE svg PUBLIC "-//W3C//DTD SVG 20010904//EN"
 "http://www.w3.org/TR/2001/REC-SVG-20010904/DTD/svg10.dtd">
<svg version="1.0" xmlns="http://www.w3.org/2000/svg"
 width="1280.000000pt" height="255.000000pt" viewBox="0 0 1280.000000 255.000000"
 preserveAspectRatio="xMidYMid meet">
<metadata>
Created by potrace 1.16, written by Peter Selinger 2001-2019
</metadata>
<g transform="translate(0.000000,255.000000) scale(0.100000,-0.100000)"
fill="#000000" stroke="none">
<path d="M43 2528 c-11 -13 -26 -33 -32 -45 -8 -16 -11 -304 -11 -1036 l0
-1014 23 -34 c12 -18 38 -44 56 -56 32 -22 43 -23 212 -23 l177 0 44 -36 c161
-135 380 -235 593 -270 74 -12 139 -15 250 -11 177 6 300 33 431 97 84 41 215
133 268 189 21 22 39 31 61 31 37 0 89 32 119 73 16 22 22 49 27 125 3 62 14
119 28 157 66 182 66 459 -1 617 -23 52 -23 60 -28 619 l-5 566 -28 36 -28 37
-1068 0 -1068 0 -20 -22z m1350 -52 c-251 -76 -427 -178 -579 -337 -176 -184
-282 -400 -321 -653 -29 -189 -3 -423 62 -569 96 -216 284 -382 520 -457 97
-31 301 -39 399 -16 95 22 178 69 258 145 78 73 127 147 158 241 18 54 21 82
18 165 -3 86 -8 109 -32 160 -57 117 -182 210 -337 250 -91 24 -252 23 -348
-3 -40 -11 -80 -18 -88 -15 -81 31 23 181 181 258 180 89 385 83 581 -18 111
-57 235 -181 292 -292 63 -123 77 -186 77 -350 -1 -163 -19 -248 -83 -379 -63
-129 -51 -122 -160 -97 -51 12 -94 21 -96 19 -2 -2 10 -46 26 -98 l29 -95 -42
-37 c-47 -42 -195 -128 -219 -128 -8 0 -39 29 -69 65 -29 36 -56 62 -59 59 -3
-3 -20 -45 -37 -92 -37 -103 -29 -99 -215 -101 -87 -1 -130 3 -141 12 -9 6
-26 44 -38 82 -12 39 -26 74 -30 79 -5 5 -23 -9 -42 -30 -18 -21 -45 -51 -59
-68 l-25 -29 -60 22 c-59 23 -197 91 -228 114 -15 11 -15 19 0 95 8 46 13 86
11 89 -3 2 -43 -9 -90 -26 l-86 -30 -60 64 c-33 36 -79 92 -101 125 l-41 61
41 65 c23 36 39 68 36 71 -3 3 -39 8 -80 11 l-74 5 -25 76 c-47 142 -61 242
-61 426 1 136 5 191 23 275 76 359 271 681 539 889 l54 41 381 -1 382 0 -142
-43z"/>
<path d="M1329 1641 c-23 -23 -29 -38 -29 -71 0 -52 13 -76 50 -95 49 -25 88
-19 126 19 38 38 44 77 19 126 -19 37 -43 50 -95 50 -33 0 -48 -6 -71 -29z"/>
<path d="M5932 2460 c-22 -20 -22 -26 -22 -271 l0 -249 -53 52 c-29 29 -82 69
-117 87 -56 30 -77 36 -151 39 -226 11 -387 -115 -475 -373 -23 -69 -28 -100
-32 -225 -3 -107 0 -164 12 -220 19 -89 80 -218 132 -279 108 -125 287 -177
464 -135 79 18 135 50 183 103 l37 41 0 -58 c0 -73 14 -93 71 -99 35 -4 50 -1
69 15 l25 20 0 767 0 767 -24 19 c-31 26 -91 25 -119 -1z m-259 -526 c56 -19
136 -88 170 -147 52 -88 70 -163 71 -287 1 -92 -4 -129 -21 -185 -58 -184
-180 -282 -338 -273 -81 5 -115 21 -173 79 -81 81 -126 212 -125 369 1 322
189 522 416 444z"/>
<path d="M6290 2468 c-58 -31 -65 -126 -14 -179 23 -24 36 -29 76 -29 68 0
105 21 114 65 9 50 -3 98 -31 125 -30 28 -108 37 -145 18z"/>
<path d="M7855 2468 c-35 -19 -45 -40 -45 -96 0 -46 4 -58 29 -83 25 -25 37
-29 84 -29 65 0 94 19 106 70 17 80 -35 150 -112 150 -23 0 -51 -6 -62 -12z"/>
<path d="M11489 2461 l-24 -19 0 -752 0 -752 24 -19 c36 -29 109 -21 133 15 4
6 8 347 8 759 0 734 0 747 -20 767 -26 26 -89 27 -121 1z"/>
<path d="M3719 2111 c-19 -15 -24 -30 -27 -86 l-4 -67 -47 46 c-25 25 -77 60
-116 78 -66 31 -76 33 -180 33 -105 0 -114 -2 -178 -34 -96 -47 -166 -121
-222 -235 -68 -138 -80 -194 -80 -376 0 -135 3 -165 23 -230 51 -162 134 -268
251 -324 59 -27 78 -31 177 -34 80 -3 128 0 174 12 65 17 142 59 176 97 18 20
19 20 29 -33 8 -43 15 -55 38 -66 35 -17 88 -9 111 17 15 16 16 69 14 599 -3
554 -4 581 -22 601 -24 27 -85 28 -117 2z m-265 -178 c268 -97 321 -625 84
-838 -115 -104 -282 -98 -379 13 -164 186 -154 610 18 774 68 65 180 85 277
51z"/>
<path d="M7884 2119 c-18 -5 -36 -17 -40 -27 -5 -9 -10 -371 -12 -803 -3 -867
-4 -856 55 -872 37 -11 75 -4 97 19 14 14 16 103 16 833 0 767 -1 819 -17 833
-25 21 -62 27 -99 17z"/>
<path d="M11155 2105 c-21 -20 -25 -34 -25 -80 l0 -55 -41 41 c-120 120 -344
145 -512 56 -116 -61 -222 -208 -264 -367 -24 -90 -23 -309 1 -400 25 -94 80
-199 136 -263 104 -116 218 -163 379 -155 116 6 192 35 259 101 l42 41 0 -29
c0 -53 -20 -154 -42 -213 -29 -80 -104 -154 -177 -176 -115 -34 -210 -17 -379
66 -105 52 -128 60 -150 52 -62 -22 -67 -107 -9 -164 40 -39 152 -95 237 -117
96 -25 285 -23 367 4 122 40 217 122 269 230 52 110 54 139 54 800 l0 612 -26
20 c-37 29 -89 27 -119 -4z m-212 -168 c188 -111 257 -468 137 -713 -64 -131
-155 -196 -272 -196 -175 0 -303 173 -323 435 -17 223 83 438 228 491 65 24
173 16 230 -17z"/>
<path d="M12236 2118 c-79 -8 -168 -47 -233 -103 -61 -52 -137 -171 -169 -267
-27 -78 -29 -93 -29 -248 0 -146 3 -173 23 -235 64 -190 198 -326 366 -371 69
-19 247 -18 320 1 88 23 165 65 222 121 76 74 82 129 20 170 -35 22 -59 14
-154 -54 -113 -82 -170 -106 -257 -106 -57 0 -81 5 -126 27 -63 31 -156 122
-188 185 -20 39 -51 142 -51 169 0 10 79 13 394 13 354 0 395 2 407 17 22 26
25 244 5 324 -66 259 -262 387 -550 357z m211 -184 c104 -50 165 -149 187
-301 l6 -43 -330 0 c-181 0 -330 3 -330 8 1 32 33 148 50 183 28 55 94 125
142 150 87 45 187 46 275 3z"/>
<path d="M6294 2106 c-18 -14 -19 -33 -22 -585 l-2 -571 24 -25 c34 -34 88
-34 121 0 l25 24 0 566 c0 552 0 565 -20 585 -24 24 -96 27 -126 6z"/>
<path d="M7006 2109 c-103 -25 -209 -106 -277 -212 -163 -252 -136 -657 58
-867 98 -106 202 -150 353 -150 150 0 256 44 351 147 112 121 159 257 159 457
0 155 -18 239 -75 351 -59 119 -133 194 -235 244 -71 34 -81 36 -185 38 -60 1
-127 -2 -149 -8z m218 -155 c92 -32 183 -155 223 -305 23 -88 23 -264 -1 -344
-38 -127 -107 -219 -193 -257 -105 -46 -245 -13 -318 76 -159 194 -167 547
-18 743 67 87 197 124 307 87z"/>
<path d="M9260 2100 c-20 -20 -20 -33 -20 -585 l0 -566 25 -24 c33 -34 87 -34
120 0 l25 24 0 357 c0 400 4 431 66 517 63 87 162 133 265 124 91 -8 160 -53
202 -132 21 -39 22 -52 25 -457 l3 -417 26 -21 c36 -28 88 -26 118 5 l25 24 0
399 c0 226 -4 422 -10 452 -24 128 -98 228 -209 283 -62 30 -71 32 -181 32
-110 0 -119 -2 -181 -32 -38 -19 -84 -52 -108 -78 l-41 -45 0 51 c0 50 -13 87
-34 101 -23 16 -96 8 -116 -12z"/>
<path d="M4077 2082 c-58 -7 -58 -8 -55 -484 l3 -433 33 -67 c38 -78 90 -126
177 -168 236 -111 545 -30 642 168 l28 57 3 446 c3 434 2 446 -17 463 -25 23
-98 24 -120 1 -14 -14 -17 -68 -21 -423 -5 -403 -5 -407 -29 -455 -98 -197
-386 -211 -496 -23 -37 64 -45 148 -45 531 0 193 -4 356 -8 363 -11 16 -59 28
-95 24z"/>
<path d="M8235 2078 c-16 -4 -32 -13 -36 -20 -5 -7 -9 -207 -9 -445 0 -418 1
-434 21 -490 54 -144 225 -243 419 -243 188 0 354 90 419 229 l26 56 3 436 c3
407 2 437 -15 458 -12 14 -30 22 -53 23 -58 2 -78 -10 -90 -50 -6 -22 -10
-189 -11 -412 0 -260 -4 -385 -12 -407 -22 -60 -72 -117 -128 -148 -48 -27
-63 -30 -139 -30 -101 0 -143 18 -207 88 -70 76 -73 96 -73 532 0 416 0 418
-58 427 -16 2 -41 1 -57 -4z"/>
</g>
</svg>
