<?xml version="1.0" standalone="no"?>
<!DOCTYPE svg PUBLIC "-//W3C//DTD SVG 20010904//EN"
 "http://www.w3.org/TR/2001/REC-SVG-20010904/DTD/svg10.dtd">
<svg version="1.0" xmlns="http://www.w3.org/2000/svg"
 width="1280.000000pt" height="308.000000pt" viewBox="0 0 1280.000000 308.000000"
 preserveAspectRatio="xMidYMid meet">
<metadata>
Created by potrace 1.16, written by Peter Selinger 2001-2019
</metadata>
<g transform="translate(0.000000,308.000000) scale(0.100000,-0.100000)"
fill="#000000" stroke="none">
<path d="M1525 3056 c-123 -39 -195 -126 -195 -237 l0 -39 -275 0 c-155 0
-295 -5 -323 -11 -64 -13 -116 -63 -131 -124 -7 -29 -11 -211 -11 -539 l0
-496 -34 0 c-143 0 -294 -78 -372 -194 -96 -142 -98 -365 -4 -494 16 -23 30
-45 30 -50 0 -4 -20 -34 -45 -67 -105 -140 -165 -310 -165 -470 0 -154 45
-252 140 -303 39 -21 55 -23 125 -20 69 4 90 9 152 42 74 39 198 155 239 224
14 26 22 30 39 24 11 -4 529 -7 1151 -7 l1131 0 35 27 c73 56 68 -30 68 1206
0 763 -3 1120 -11 1139 -24 63 -78 99 -165 109 -49 6 -62 12 -88 42 -46 52
-137 107 -210 127 -128 35 -293 4 -386 -73 l-25 -20 -40 32 c-150 120 -329
187 -499 185 -50 0 -109 -6 -131 -13z m264 -82 c36 -9 99 -31 139 -50 71 -32
202 -118 202 -132 0 -3 -62 -69 -139 -147 -93 -94 -147 -157 -165 -193 l-27
-53 -79 42 c-89 46 -201 143 -249 216 -42 63 -66 141 -57 187 10 53 68 113
125 130 62 20 171 19 250 0z m792 -114 c179 -56 297 -246 263 -420 l-7 -32
-229 229 c-203 203 -226 229 -206 235 45 12 117 8 179 -12z m-116 -321 c66
-67 110 -116 99 -110 -12 6 -48 13 -80 17 -69 8 -114 41 -114 84 0 15 -7 49
-15 76 -16 53 -16 54 -12 54 1 0 56 -54 122 -121z m-242 -142 c-3 -5 -21 -16
-41 -24 l-35 -15 -88 88 -89 88 32 33 32 33 98 -97 c53 -53 94 -101 91 -106z
m-276 -123 c27 -4 51 -16 69 -35 27 -28 27 -29 5 -29 -35 0 -78 -27 -105 -66
l-25 -36 -15 53 c-9 29 -16 70 -16 92 0 36 2 39 23 34 12 -4 41 -9 64 -13z
m511 -97 l112 -113 -33 -32 -33 -32 -102 103 c-56 56 -102 106 -102 111 0 13
32 76 39 76 3 0 57 -51 119 -113z m373 -255 c26 -112 23 -256 -7 -336 -25 -66
-78 -121 -130 -135 -116 -31 -271 99 -355 298 l-27 65 56 19 c78 26 120 58
257 197 l120 121 32 -68 c18 -37 42 -110 54 -161z m-916 17 c48 -48 57 -62 45
-69 -8 -5 -73 -45 -145 -89 -71 -43 -131 -78 -133 -77 -3 4 162 296 168 296 3
0 32 -27 65 -61z m-1265 -426 c2 -2 -97 -105 -220 -228 -150 -151 -227 -220
-232 -212 -14 22 -8 124 10 185 43 135 152 233 295 262 38 8 136 4 147 -7z
m755 6 c72 -13 140 -47 179 -88 43 -44 48 -119 13 -187 -44 -86 -159 -179
-284 -232 -28 -12 -54 -22 -56 -22 -2 0 -9 19 -16 43 -23 76 -62 130 -189 259
-69 70 -124 129 -121 132 15 14 114 57 164 71 115 34 216 42 310 24z m-771
-296 c-7 -21 -13 -56 -14 -78 0 -55 -48 -105 -101 -105 -20 0 -56 -7 -80 -15
-43 -15 -41 -13 81 110 69 69 125 125 126 125 1 0 -4 -17 -12 -37z m333 -151
l-103 -103 -34 15 c-19 8 -39 18 -43 22 -4 4 43 59 105 121 l112 113 33 -32
33 -32 -103 -104z m-270 -220 l15 -35 -86 -86 -86 -86 -32 33 -33 32 94 94
c52 52 99 92 104 89 5 -3 16 -21 24 -41z m-81 -351 l52 -23 -15 -37 c-20 -47
-93 -156 -135 -202 -119 -130 -265 -182 -349 -126 -20 13 -46 45 -61 76 -51
100 -35 263 42 426 20 44 57 106 80 137 l43 58 146 -143 c103 -100 161 -149
197 -166z m262 132 c7 -12 26 -30 42 -40 17 -9 30 -20 30 -24 0 -7 -66 -26
-127 -35 -48 -7 -47 -9 -32 72 8 38 21 69 38 87 l26 28 6 -33 c3 -18 11 -43
17 -55z m387 -140 c46 -76 82 -139 81 -141 -2 -1 -69 35 -149 80 l-147 83 62
62 c34 34 64 60 66 58 3 -2 42 -66 87 -142z"/>
<path d="M4780 2502 c-70 -35 -75 -151 -9 -206 24 -20 42 -26 79 -26 27 0 60
5 74 11 29 14 56 64 56 106 0 68 -66 133 -135 133 -16 0 -46 -8 -65 -18z"/>
<path d="M6123 2510 c-12 -5 -26 -18 -32 -29 -7 -12 -11 -119 -11 -293 l0
-273 -68 65 c-117 112 -240 154 -387 133 -139 -20 -247 -90 -335 -216 -180
-255 -188 -684 -19 -944 92 -141 211 -212 386 -228 142 -14 272 27 363 114
l60 57 0 -62 c0 -85 20 -109 88 -109 35 0 56 6 71 19 l21 19 0 852 c0 799 -1
854 -18 875 -19 24 -84 35 -119 20z m-280 -613 c159 -72 257 -285 243 -523
-17 -280 -169 -464 -385 -464 -208 0 -351 203 -351 500 0 251 102 445 267 506
56 21 158 13 226 -19z"/>
<path d="M9083 2510 c-12 -5 -26 -18 -32 -29 -8 -13 -11 -282 -11 -850 0 -818
0 -831 20 -851 29 -29 110 -28 136 1 18 20 19 46 24 468 l5 446 26 55 c36 78
80 124 151 160 50 24 74 30 128 30 151 0 260 -83 304 -230 14 -45 16 -120 16
-475 0 -412 1 -423 21 -449 17 -22 28 -26 70 -26 36 0 54 5 69 20 19 19 20 33
20 494 0 442 -1 479 -19 537 -50 158 -185 272 -358 299 -153 25 -322 -29 -407
-130 l-26 -32 0 251 c0 162 -4 259 -11 274 -19 41 -75 57 -126 37z"/>
<path d="M10285 2512 c-54 -18 -75 -50 -75 -112 0 -47 20 -92 52 -114 29 -20
110 -21 148 -1 38 20 50 43 50 97 0 95 -86 159 -175 130z"/>
<path d="M4785 2095 l-25 -24 0 -636 c0 -622 0 -635 20 -655 15 -15 33 -20 70
-20 37 0 55 5 70 20 20 20 20 33 20 659 l0 640 -26 20 c-38 30 -98 28 -129 -4z"/>
<path d="M6881 2104 c-185 -50 -341 -224 -403 -451 -31 -115 -31 -346 0 -457
87 -305 292 -466 591 -466 189 1 320 49 433 159 55 54 68 73 68 98 0 35 -32
80 -66 93 -33 13 -62 0 -158 -70 -125 -91 -184 -115 -281 -115 -71 0 -89 4
-147 33 -122 60 -237 218 -254 349 l-7 53 439 2 439 3 20 40 c25 53 26 237 0
340 -51 204 -194 350 -382 390 -86 18 -222 18 -292 -1z m284 -188 c124 -56
202 -175 221 -338 l6 -58 -366 0 -366 0 0 28 c0 43 28 149 51 194 48 94 155
178 253 198 59 12 143 2 201 -24z"/>
<path d="M8164 2105 c-214 -46 -375 -230 -428 -487 -20 -98 -21 -286 -1 -382
37 -181 134 -337 261 -421 94 -63 152 -78 294 -79 135 -1 192 11 280 62 326
186 401 770 143 1113 -127 168 -333 241 -549 194z m220 -171 c147 -50 261
-259 273 -499 15 -313 -137 -539 -362 -539 -90 0 -149 26 -215 94 -98 100
-150 257 -150 450 0 216 59 363 181 453 75 56 182 72 273 41z"/>
<path d="M10283 2110 c-12 -5 -26 -18 -32 -29 -8 -13 -11 -221 -11 -644 0
-616 0 -625 21 -651 17 -22 28 -26 69 -26 32 0 55 6 71 19 l24 19 3 623 c2
433 -1 632 -8 650 -18 43 -82 61 -137 39z"/>
<path d="M12113 2105 c-257 -69 -433 -347 -433 -681 0 -344 176 -608 455 -679
75 -19 238 -19 327 0 101 21 191 68 264 138 77 74 90 114 54 160 -29 37 -62
49 -96 37 -14 -6 -63 -37 -108 -70 -123 -89 -184 -114 -281 -115 -66 0 -90 5
-138 27 -136 64 -267 250 -267 380 l0 28 435 0 435 0 17 27 c27 41 26 314 -1
393 -65 192 -198 318 -373 355 -85 18 -222 18 -290 0z m284 -190 c120 -54 197
-174 218 -342 l7 -53 -366 0 -366 0 0 33 c0 49 27 144 57 199 92 170 283 239
450 163z"/>
<path d="M3624 2066 c-48 -35 -46 -43 162 -670 143 -427 203 -596 220 -613 17
-17 34 -23 69 -23 53 0 80 12 95 41 6 11 99 275 207 587 209 606 217 638 172
675 -26 21 -87 19 -115 -4 -26 -22 -39 -54 -194 -509 -84 -245 -156 -448 -159
-453 -4 -4 -76 202 -160 458 -96 294 -160 475 -174 491 -28 32 -92 42 -123 20z"/>
<path d="M10661 2063 c-47 -39 -44 -54 149 -626 217 -647 216 -643 243 -662
35 -24 110 -20 138 9 31 31 420 1162 419 1219 0 76 -80 104 -140 50 -26 -24
-52 -93 -192 -501 l-162 -474 -152 463 c-84 254 -158 473 -165 487 -26 48 -99
67 -138 35z"/>
</g>
</svg>
