<?xml version="1.0" standalone="no"?>
<!DOCTYPE svg PUBLIC "-//W3C//DTD SVG 20010904//EN"
 "http://www.w3.org/TR/2001/REC-SVG-20010904/DTD/svg10.dtd">
<svg version="1.0" xmlns="http://www.w3.org/2000/svg"
 width="1280.000000pt" height="343.000000pt" viewBox="0 0 1280.000000 343.000000"
 preserveAspectRatio="xMidYMid meet">
<metadata>
Created by potrace 1.16, written by Peter Selinger 2001-2019
</metadata>
<g transform="translate(0.000000,343.000000) scale(0.100000,-0.100000)"
fill="#000000" stroke="none">
<path d="M1533 3399 c-311 -24 -607 -135 -863 -324 -89 -66 -137 -111 -128
-120 3 -3 39 6 81 20 98 33 243 48 339 35 163 -21 203 -40 603 -271 187 -108
455 -263 595 -343 140 -81 272 -159 293 -172 l37 -24 0 -405 c0 -303 3 -405
12 -405 24 0 413 227 473 277 110 90 201 240 230 379 63 296 -72 601 -402 914
-265 251 -617 406 -998 439 -130 12 -124 12 -272 0z"/>
<path d="M612 2880 c-113 -30 -187 -74 -277 -165 -68 -67 -90 -99 -143 -202
-77 -150 -124 -274 -159 -423 -26 -109 -28 -128 -28 -360 0 -220 2 -256 23
-348 98 -436 350 -809 712 -1052 85 -58 267 -149 357 -180 72 -24 106 -21 68
6 -87 62 -200 206 -246 311 -68 153 -63 87 -67 949 l-3 781 283 163 c156 90
307 177 337 194 30 17 56 36 58 42 6 18 -390 239 -482 270 -68 23 -100 28
-220 31 -116 3 -153 0 -213 -17z"/>
<path d="M3820 2455 l0 -145 85 0 85 0 0 -760 0 -760 170 0 170 0 0 310 0 310
198 0 c223 0 297 12 396 60 178 88 288 267 303 494 16 254 -97 471 -297 570
-123 60 -175 65 -672 66 l-438 0 0 -145z m895 -173 c65 -30 108 -73 137 -136
18 -41 23 -68 23 -141 -1 -142 -51 -228 -159 -276 -45 -20 -71 -24 -218 -27
l-168 -4 0 307 0 307 168 -4 c147 -3 173 -6 217 -26z"/>
<path d="M5420 2445 l0 -155 145 0 145 0 0 155 0 155 -145 0 -145 0 0 -155z"/>
<path d="M9280 2456 l0 -146 70 0 c58 0 71 -3 80 -19 5 -11 10 -85 10 -167 l0
-148 -27 26 c-95 86 -170 111 -338 112 -150 1 -220 -17 -322 -83 -182 -118
-274 -320 -274 -598 0 -221 60 -391 181 -514 106 -108 231 -159 390 -159 152
0 267 44 357 137 l53 54 0 -32 c0 -48 27 -94 66 -112 28 -14 68 -17 219 -17
l185 0 0 140 0 140 -62 0 c-35 0 -70 5 -78 10 -13 8 -16 102 -20 717 -5 674
-6 709 -24 736 -38 56 -63 62 -273 65 l-193 4 0 -146z m-8 -659 c124 -72 190
-243 167 -434 -12 -99 -63 -209 -117 -251 -72 -57 -101 -67 -192 -67 -102 0
-143 17 -212 87 -148 151 -138 489 18 627 63 56 112 71 210 68 66 -3 89 -8
126 -30z"/>
<path d="M7655 2105 c-230 -50 -397 -202 -472 -430 -24 -71 -27 -96 -27 -225
-1 -125 2 -155 22 -220 35 -110 86 -196 166 -276 81 -80 146 -120 261 -161 75
-26 91 -28 240 -28 154 0 164 2 250 32 96 33 197 87 248 133 l31 27 -63 107
c-35 58 -68 109 -73 112 -5 4 -29 -8 -53 -25 -196 -141 -426 -145 -579 -10
-48 43 -100 136 -112 202 l-6 37 445 0 446 0 7 56 c8 67 -1 181 -21 261 -38
149 -144 292 -262 356 -115 62 -305 84 -448 52z m226 -256 c78 -24 146 -108
163 -201 l7 -38 -276 0 -276 0 7 23 c32 106 112 186 214 218 38 11 118 10 161
-2z"/>
<path d="M10465 2104 c-216 -46 -392 -206 -461 -417 -36 -109 -45 -298 -20
-410 29 -127 85 -228 179 -322 95 -94 180 -142 317 -176 112 -28 308 -23 415
11 87 27 207 89 259 133 l39 34 -67 111 c-37 62 -71 112 -75 112 -5 0 -38 -20
-74 -44 -95 -64 -181 -91 -292 -90 -112 0 -182 26 -255 91 -56 50 -106 137
-116 202 l-7 41 447 0 446 0 1 58 c5 181 -10 265 -71 388 -93 191 -274 295
-510 293 -47 0 -116 -7 -155 -15z m262 -269 c75 -38 133 -123 133 -195 l0 -30
-271 0 -271 0 7 28 c6 27 42 92 67 122 76 92 231 127 335 75z"/>
<path d="M12075 2110 c-128 -28 -250 -107 -307 -198 l-23 -37 -6 68 c-5 56
-10 72 -34 97 -41 43 -79 50 -272 50 l-173 0 0 -140 0 -140 58 0 c36 0 66 -6
80 -16 l22 -15 0 -495 0 -494 164 0 165 0 3 358 c4 338 5 360 26 417 42 113
136 208 235 237 61 17 166 15 204 -5 17 -9 40 -29 51 -44 43 -62 45 -83 51
-488 5 -356 8 -393 24 -419 32 -49 68 -56 272 -56 l185 0 0 140 0 140 -63 0
c-36 0 -68 5 -75 12 -9 9 -12 90 -12 303 0 159 -5 320 -10 358 -36 249 -168
366 -420 373 -58 2 -123 -1 -145 -6z"/>
<path d="M5250 1950 l0 -140 58 0 c98 0 91 37 94 -470 3 -426 4 -446 23 -480
41 -69 46 -70 460 -70 l370 1 125 204 c69 113 127 205 130 204 3 0 61 -92 130
-204 l125 -204 188 -1 187 0 -53 82 c-30 46 -124 192 -210 325 -87 133 -157
245 -157 250 0 4 50 83 112 175 123 185 127 188 229 188 l59 0 0 140 0 140
-152 0 c-172 0 -217 -12 -257 -68 -21 -30 -184 -300 -195 -325 -5 -9 -7 -9
-12 1 -3 7 -49 85 -102 174 -130 216 -123 212 -339 216 l-163 4 0 -140 0 -140
74 -4 c45 -2 80 -9 91 -18 10 -8 67 -88 127 -178 l109 -163 -23 -39 c-13 -21
-104 -164 -203 -317 l-180 -279 -3 128 -3 128 -64 0 c-101 0 -95 -30 -95 478
0 493 1 489 -74 523 -35 16 -68 19 -223 19 l-183 0 0 -140z"/>
<path d="M3290 2003 c-13 -73 -58 -196 -92 -253 -82 -136 -189 -233 -370 -337
-68 -38 -351 -201 -630 -361 -279 -161 -510 -292 -512 -292 -6 0 -354 201
-540 311 -82 49 -155 89 -163 89 -13 0 -14 -38 -10 -272 3 -245 6 -281 26
-348 73 -244 249 -421 486 -486 176 -48 497 -19 748 67 747 256 1217 1017
1112 1802 -23 171 -35 189 -55 80z"/>
</g>
</svg>
